# xmcd
#
# Track frame offsets:
#	150
#	19283
#	36811
#	52641
#	71686
#	91249
#	107601
#	126153
#	145428
#	159876
#	177392
#	199890
#	225767
#	242240
#	260872
#	275749
#
# Disc length: 3875 seconds
#
# Revision: 1
# Processed by: cddbd v1.5.2PL0 Copyright (c) Steve Scherf et al.
# Submitted via: audiograbber 1.83.01
#
DISCID=df0f2110
DTITLE=T'Pau - Greatest Hits Live
DYEAR=2007
DGENRE=Pop
TTITLE0=Island
TTITLE1=Monkey House
TTITLE2=The Promise
TTITLE3=Valentine
TTITLE4=Bridge of Spies
TTITLE5=Whenever you need me
TTITLE6=I will be with you
TTITLE7=Secret Garden
TTITLE8=Running away
TTITLE9=Sex talk
TTITLE10=Heart and soul
TTITLE11=China in your hand
TTITLE12=Monkey House (Bonus Studio Track)
TTITLE13=I will be with you (Bonus Studio Track)
TTITLE14=Heard and soul (Bonus Studio Track)
TTITLE15=China in your hand (Bonus Studio Track)
EXTD=
EXTT0=
EXTT1=
EXTT2=
EXTT3=
EXTT4=
EXTT5=
EXTT6=
EXTT7=
EXTT8=
EXTT9=
EXTT10=
EXTT11=
EXTT12=
EXTT13=
EXTT14=
EXTT15=
PLAYORDER=
